<?xml version="1.0" encoding="UTF-8" standalone="no"?>
<!-- Created with Inkscape (http://www.inkscape.org/) -->

<svg
   version="1.0"
   id="svg2"
   sodipodi:version="0.32"
   inkscape:version="1.3.2 (091e20e, 2023-11-25, custom)"
   sodipodi:docname="python.svg"
   width="83.371025pt"
   height="84.291748pt"
   inkscape:export-filename="python-logo-only.png"
   inkscape:export-xdpi="232.44"
   inkscape:export-ydpi="232.44"
   xmlns:inkscape="http://www.inkscape.org/namespaces/inkscape"
   xmlns:sodipodi="http://sodipodi.sourceforge.net/DTD/sodipodi-0.dtd"
   xmlns="http://www.w3.org/2000/svg"
   xmlns:svg="http://www.w3.org/2000/svg"
   xmlns:rdf="http://www.w3.org/1999/02/22-rdf-syntax-ns#"
   xmlns:cc="http://creativecommons.org/ns#"
   xmlns:dc="http://purl.org/dc/elements/1.1/">
  <metadata
     id="metadata371">
    <rdf:RDF>
      <cc:Work
         rdf:about="">
        <dc:format>image/svg+xml</dc:format>
        <dc:type
           rdf:resource="http://purl.org/dc/dcmitype/StillImage" />
      </cc:Work>
    </rdf:RDF>
  </metadata>
  <sodipodi:namedview
     inkscape:window-height="1041"
     inkscape:window-width="1904"
     inkscape:pageshadow="2"
     inkscape:pageopacity="0.0"
     guidetolerance="10.0"
     gridtolerance="10.0"
     objecttolerance="10.0"
     borderopacity="1.0"
     bordercolor="#666666"
     pagecolor="#ffffff"
     id="base"
     inkscape:zoom="4.2923284"
     inkscape:cx="85.151919"
     inkscape:cy="45.080428"
     inkscape:window-x="0"
     inkscape:window-y="0"
     inkscape:current-layer="svg2"
     width="210mm"
     height="40mm"
     units="mm"
     inkscape:showpageshadow="2"
     inkscape:pagecheckerboard="0"
     inkscape:deskcolor="#d1d1d1"
     inkscape:document-units="pt"
     showgrid="false"
     inkscape:window-maximized="0" />
  <defs
     id="defs4" />
  <g
     id="g1"
     transform="matrix(0.86852124,0,0,0.86852124,3.6374117,4.5418158)">
    <path
       id="path1948"
       style="fill:#ffffff;fill-opacity:1;fill-rule:nonzero;stroke:#000000;stroke-width:3;stroke-linecap:round;stroke-linejoin:round;stroke-dasharray:none;stroke-opacity:1;paint-order:stroke fill markers"
       d="M 56.549601,1.5009215 C 51.965952,1.5222195 47.588658,1.9131399 43.737101,2.5946716 32.390896,4.5991734 30.330852,8.7947817 30.330851,16.532171 v 10.21875 h 26.8125 v 3.40625 h -26.8125 -10.0625 c -7.792451,0 -14.6157623,4.683726 -16.7500011,13.59375 -2.4618176,10.212956 -2.5710126,16.586034 0,27.25 1.9059263,7.937844 6.4575511,13.593748 14.2500011,13.59375 h 9.21875 v -12.25 c 0,-8.849893 7.657153,-16.656248 16.75,-16.65625 h 26.78125 c 7.454943,0 13.406253,-6.138171 13.40625,-13.625 v -25.53125 c 0,-7.2663307 -6.129988,-12.724778 -13.40625,-13.9374994 C 65.912368,1.827947 61.133249,1.4796232 56.549601,1.5009215 Z m -14.5,8.2187501 c 2.769544,0 5.03125,2.2986484 5.03125,5.1249994 -2e-6,2.816333 -2.261706,5.09375 -5.03125,5.09375 -2.779473,-1e-6 -5.03125,-2.277418 -5.03125,-5.09375 -1e-6,-2.82635 2.251777,-5.1249994 5.03125,-5.1249994 z"
       sodipodi:nodetypes="scsccccsccscssssscssssss" />
    <path
       id="path1"
       style="fill:#ffffff;fill-opacity:1;fill-rule:nonzero;stroke:#000000;stroke-width:3;stroke-linecap:round;stroke-linejoin:round;stroke-dasharray:none;stroke-opacity:1;paint-order:stroke fill markers"
       d="m 62.571384,117.44305 c 4.583649,-0.0213 8.960943,-0.41222 12.8125,-1.09375 11.346206,-2.0045 13.406246,-6.20011 13.406246,-13.9375 V 92.193054 H 61.977634 v -3.40625 h 26.812496 10.0625 c 7.79246,0 14.61577,-4.683726 16.75001,-13.59375 2.46181,-10.212956 2.57101,-16.586034 0,-27.25 -1.90593,-7.937844 -6.45756,-13.593748 -14.25001,-13.59375 h -9.21875 v 12.25 c 0,8.849893 -7.657149,16.656248 -16.749996,16.65625 h -26.78125 c -7.454942,0 -13.406252,6.138171 -13.406249,13.625 V 102.4118 c 0,7.26633 6.129988,12.72478 13.406249,13.9375 4.605983,0.76673 9.385102,1.11505 13.96875,1.09375 z m 14.5,-8.21875 c -2.769544,0 -5.03125,-2.29865 -5.03125,-5.125 2e-6,-2.81633 2.261706,-5.093746 5.03125,-5.093746 2.779473,10e-7 5.03125,2.277416 5.03125,5.093746 1e-6,2.82635 -2.251777,5.125 -5.03125,5.125 z"
       sodipodi:nodetypes="scsccccsccscssssscssssss" />
  </g>
</svg>
